<svg width="512" height="512" viewBox="0 0 512 512" fill="none" xmlns="http://www.w3.org/2000/svg">
<path d="M96 101.714C96 98.5584 98.5584 96 101.714 96H113.143C116.299 96 118.857 98.5584 118.857 101.714V181.714C118.857 184.87 116.299 187.429 113.143 187.429H101.714C98.5584 187.429 96 184.87 96 181.714V101.714Z" fill="#FFD60A"/>
<path d="M141.714 101.714C141.714 98.5584 144.273 96 147.429 96H158.857C162.013 96 164.571 98.5584 164.571 101.714V181.714C164.571 184.87 162.013 187.429 158.857 187.429H147.429C144.273 187.429 141.714 184.87 141.714 181.714V101.714Z" fill="#FFD60A"/>
<path d="M187.429 101.714C187.429 98.5584 189.987 96 193.143 96H410.286C413.442 96 416 98.5584 416 101.714V181.714C416 184.87 413.442 187.429 410.286 187.429H193.143C189.987 187.429 187.429 184.87 187.429 181.714V101.714Z" fill="#FFD60A"/>
<path d="M96 216C96 212.844 98.5584 210.286 101.714 210.286H113.143C116.299 210.286 118.857 212.844 118.857 216V296C118.857 299.156 116.299 301.714 113.143 301.714H101.714C98.5584 301.714 96 299.156 96 296V216Z" fill="#FFD60A"/>
<path d="M141.714 216C141.714 212.844 144.273 210.286 147.429 210.286H250.286C253.442 210.286 256 212.844 256 216V296C256 299.156 253.442 301.714 250.286 301.714H147.429C144.273 301.714 141.714 299.156 141.714 296V216Z" fill="#FFD60A"/>
<path d="M96 330.286C96 327.13 98.5584 324.571 101.714 324.571H364.571C367.727 324.571 370.286 327.13 370.286 330.286V410.286C370.286 413.442 367.727 416 364.571 416H101.714C98.5584 416 96 413.442 96 410.286V330.286Z" fill="#FFD60A"/>
<path d="M393.143 330.286C393.143 327.13 395.701 324.571 398.857 324.571H410.286C413.442 324.571 416 327.13 416 330.286V410.286C416 413.442 413.442 416 410.286 416H398.857C395.701 416 393.143 413.442 393.143 410.286V330.286Z" fill="#FFD60A"/>
</svg>
